<svg width="682" height="682" viewBox="0 0 682 682" fill="none" xmlns="http://www.w3.org/2000/svg">
<circle cx="341" cy="341" r="327" fill="white"/>
<path d="M341 0C529.329 0 682 152.671 682 341C682 529.329 529.329 682 341 682C152.671 682 0 529.329 0 341C0 152.671 152.671 0 341 0ZM540.587 93.876C537.326 84.2996 531.789 81.4795 522.01 83.8281C513.291 85.9222 504.887 89.0185 496.639 92.5254C473.972 102.162 453.902 115.888 435.203 131.729C432.532 133.992 430.168 134.94 426.488 133.855C399.851 126.006 372.599 122.351 344.829 121.922C312.83 121.427 281.315 124.541 250.529 133.516C246.413 134.716 243.572 134.356 240.226 131.485C220.423 114.5 198.732 100.4 174.404 90.7764C164.767 86.9641 155.193 82.1222 143.351 83.9004C139.496 85.277 137.017 87.9919 135.656 91.7998C121.921 130.225 116.804 169.367 126.263 209.607C127.244 213.783 126.547 216.914 124.104 220.199C112.471 235.84 104.183 253.229 99.6338 272.078C88.9437 316.371 91.5293 360.206 107 402.994C118.465 434.703 139.103 459.305 167.807 477.17C191.223 491.744 216.643 501.102 243.475 506.846C253.044 508.894 262.727 510.417 272.711 512.245C272.22 513.563 272.122 514.367 271.691 514.904C258.612 531.243 251.879 549.885 251.498 570.785C251.423 574.928 248.879 575.741 245.598 576.213C236.7 577.494 227.758 577.748 218.801 577.383C189.281 576.18 167.438 563.519 156.065 535.24C152.569 526.547 148.427 518.141 142.473 510.857C132.484 498.638 120.937 488.568 104.344 486.973C96.0323 486.174 90.5379 489.559 88.2295 495.91C85.844 502.473 88.0453 508.614 95.2178 513.437C110.806 523.919 121.256 538.162 127.898 555.627C138.125 582.516 157.358 600.112 184.773 608.515C203.83 614.355 223.42 614.638 243.08 612.6C250.575 611.822 251.341 612.232 251.53 619.084C251.804 628.991 256.831 633.965 267.001 633.975C314.079 634.018 361.158 634.012 408.236 633.956C418.987 633.943 424.011 628.848 424.032 618.188C424.063 602.749 423.918 587.31 424.03 571.873C424.176 551.724 418.177 533.651 406.238 517.472C405.169 516.023 403.386 514.823 403.86 512.107C412.49 510.57 421.28 509.214 429.964 507.363C433.992 506.505 436.687 507.479 439.579 510.355C458.496 529.17 477.723 547.673 496.577 566.549C510.084 580.072 526.13 585.164 544.6 581.28C565.147 576.96 578.936 564.141 585.22 544.288C591.397 524.769 587.49 507.002 572.575 492.344C561.566 481.524 550.456 470.802 539.209 460.229C536.041 457.251 535.779 455.325 538.911 451.934C554.002 435.595 564.695 416.628 571.474 395.448C580.639 366.812 583.374 337.493 581.702 307.536C579.846 274.276 569.605 244.15 549.826 217.342C547.48 214.162 546.834 211.348 547.805 207.365C557.196 168.819 553.236 131.029 540.587 93.876ZM308.147 201.772C366.762 190.563 415.871 208.451 451.386 256.129C486.36 303.081 488.197 354.202 461.348 406.21C455.461 417.612 453.903 414.971 463.777 424.592C493.117 453.178 522.594 481.624 552.01 510.132C563.367 521.139 563.818 536.118 553.149 547.163C542.88 557.795 526.858 557.884 515.854 547.209C499.854 531.686 483.952 516.061 467.721 500.195C453.158 486.166 438.788 472.518 424.673 458.611C420.808 454.803 417.67 454.115 412.808 457.124C390.129 471.159 365.341 478.929 338.646 478.8C265.973 478.448 207.495 426.265 197.5 356.947C187.208 285.565 236.972 215.384 308.147 201.772ZM344.823 246.064C344.03 238.534 337.693 234.004 329.127 234.653C304.336 236.532 282.682 245.776 263.45 262.732C257.828 267.923 252.775 273.62 248.499 279.966C239.106 293.908 232.344 308.931 231.04 325.89C230.369 334.618 238.314 341.035 246.285 338.51C251.589 336.829 254.622 333.087 255.644 327.369C260.456 300.423 274.834 280.47 299.701 268.559C309.571 263.831 319.977 261.144 331.068 260.816C340.117 260.55 345.672 254.116 344.823 246.064Z" fill="#17904C"/>
</svg>
