<svg width="884" height="884" viewBox="0 0 884 884" fill="none" xmlns="http://www.w3.org/2000/svg">
<path d="M442 0C686.11 0 884 197.89 884 442C884 686.11 686.11 884 442 884C197.89 884 0 686.11 0 442C0 197.89 197.89 0 442 0ZM442 143C276.867 143 143 276.867 143 442C143 607.133 276.867 741 442 741C607.133 741 741 607.133 741 442C741 276.867 607.133 143 442 143Z" fill="#17904C"/>
<path d="M553.24 580.76C540.507 568.494 527.941 556.56 515.599 544.4C512.22 541.07 509.476 540.468 505.225 543.1C485.395 555.372 463.721 562.166 440.379 562.053C376.835 561.745 325.703 516.117 316.964 455.507C307.964 393.092 351.477 331.727 413.712 319.825C464.963 310.023 507.903 325.664 538.956 367.353C569.537 408.407 571.144 453.106 547.667 498.581C542.52 508.552 541.157 506.242 549.791 514.654C575.445 539.649 601.219 564.522 626.94 589.449C636.871 599.073 637.265 612.17 627.937 621.828C618.958 631.124 604.948 631.202 595.326 621.868C581.336 608.295 567.432 594.633 553.24 580.76ZM374.629 373.127C369.713 377.666 365.295 382.647 361.556 388.196C353.343 400.386 347.431 413.522 346.29 428.35C345.704 435.982 352.65 441.594 359.62 439.386C364.258 437.916 366.91 434.644 367.803 429.644C372.012 406.083 384.583 388.636 406.326 378.221C414.956 374.087 424.055 371.738 433.753 371.452C441.665 371.219 446.523 365.593 445.781 358.553C445.086 351.968 439.546 348.008 432.055 348.575C410.378 350.217 391.445 358.301 374.629 373.127Z" fill="#17904C"/>
<path d="M288.093 817.749C276.586 816.313 265.923 813.659 258.072 805.005C252.679 799.061 246.012 794.721 240.836 788.217C230.454 775.17 218.063 763.727 203.656 754.85C197.605 751.122 190.672 750.978 183.938 750.09C171.582 748.461 163.311 741.6 157.183 730.924C151.498 721.019 146.516 710.741 140.485 701.001C135.844 693.506 129.185 687.985 123.972 681.205C114.607 669.027 108.487 655.399 108.411 639.481C108.366 629.865 107.356 620.253 106.754 610.641C106.215 602.034 104.911 593.509 105.767 584.787C106.575 576.547 103.88 568.21 105.91 559.915C106.344 558.143 106.432 556.247 107.105 554.58C111.898 542.699 113.06 530.589 110.496 517.967C109.793 514.505 110.717 510.697 110.991 507.055C111.475 500.652 110.608 494.397 108.757 488.304C105.445 477.403 107.28 467.333 111.356 456.757C116.389 443.696 122.881 431.018 123.453 416.368C123.873 405.599 122.311 395.248 120.471 384.805C118.929 376.059 117.865 367.287 121.405 358.73C122.485 356.12 123.756 353.608 126.253 351.911C127.172 351.286 128.055 350.257 128.424 349.223C133.088 336.135 141.207 324.638 144.602 310.817C147.638 298.455 153.284 286.743 157.646 274.696C163.69 258.001 172.846 242.915 181.719 227.678C184.361 223.14 188.251 220.124 193.295 218.768C199.583 217.078 204.524 213.85 208.961 208.835C218.003 198.617 227.83 189.14 239.223 181.385C247.422 175.804 250.046 163.954 246.092 154.758C243.887 149.628 243.237 144.341 245.605 138.78C249.176 130.395 253.445 122.336 255.72 113.333C257.214 107.422 261.647 102.504 266.152 98.415C270.939 94.0707 277.119 95.9075 282.375 97.6154C294.254 101.475 306.374 103.978 318.65 106.053C335.935 108.975 352.782 113.579 368.943 120.46C374.387 122.778 380.053 124.222 385.885 124.403C395.786 124.709 404.836 129.647 414.83 129.294C422.59 129.02 430.284 129.475 437.435 125.028C441.94 122.227 447.616 122.088 452.842 121.078C456.758 120.32 460.79 120.007 464.311 117.855C472.319 112.962 481.005 111.819 490.209 112.813C496.872 113.532 503.374 112.112 509.983 111.118C525.498 108.785 540.661 105.068 555.727 100.926C563.23 98.8626 570.26 95.2352 578.18 94.4244C586.895 93.5323 594.18 95.3781 599.715 102.862C605.145 110.204 612.763 114.815 621.578 116.835C632.258 119.283 639.015 125.689 643.318 135.476C648.072 146.285 655.491 154.9 665.815 160.839C670.22 163.373 673.806 166.876 677.056 170.663C680.833 175.063 685.586 176.878 691.165 176.965C696.563 177.049 701.686 178.529 706.815 179.947C716.57 182.644 722.304 190.617 728.88 197.306C742.183 210.84 744.864 228.467 745.739 246.193C746.92 270.115 754.051 291.923 766.492 312.117C775.021 325.961 781.703 340.382 785.073 356.474C789.446 377.357 793.063 398.325 796.098 419.443C798.56 436.576 801.73 453.619 804.49 470.719C806.1 480.694 809.701 490.339 812.263 500.17C817.413 519.932 817.468 539.553 811.541 559.298C807.262 573.551 806.965 588.541 805.024 603.223C802.683 620.94 753.41 629.469 752.5 647.228C751.821 660.487 712.279 672.546 706.512 684.714C702.886 692.366 729.179 698.195 725 705.5C605.089 699.987 725.263 721.144 717 725.5C715.052 726.527 626.725 715.669 706.512 734.5C700.966 741.025 682.112 748.707 674 749C662.555 749.413 716.317 752.251 706.512 758.338C702.19 761.022 698.648 764.931 694.572 768.049C682.899 776.979 671.868 787.156 656.79 790.133C649.605 791.551 643.407 795.296 637.051 798.325C629.571 801.889 621.716 804.747 614.571 809.068C609.949 811.863 604.872 813.322 599.336 813.135C590.514 812.838 581.672 812.376 572.864 812.691C563.343 813.032 554.202 815.238 545.543 819.631C534.124 825.423 522.777 831.623 510.388 835.052C497.334 838.665 483.814 839.318 470.298 839.099C459.979 838.932 449.667 839.012 439.341 838.247C432.595 837.747 425.659 838.335 418.941 839.334C410.565 840.578 403.264 837.058 395.602 835.18C392.693 834.467 391.133 831.334 388.907 829.362C384.038 825.045 378.719 822.246 371.956 821.853C365.585 821.483 359.484 817.219 353 819.064C340.359 822.661 327.566 818.904 314.864 820.572C308.686 821.383 302.003 820.658 295.861 816.925C294.067 819.654 291.204 818.13 288.093 817.749ZM269.616 216.76C266.246 217.963 264.078 220.337 262.888 223.666C250.879 257.265 246.404 291.489 254.674 326.675C255.533 330.327 254.924 333.064 252.787 335.937C242.616 349.613 235.368 364.817 231.391 381.299C222.043 420.027 224.304 458.356 237.832 495.769C247.856 523.495 265.902 545.006 291 560.627C311.475 573.371 333.702 581.553 357.163 586.575C365.531 588.366 373.997 589.698 382.727 591.297C382.298 592.449 382.212 593.151 381.835 593.621C370.399 607.907 364.511 624.208 364.178 642.483C364.112 646.105 361.888 646.815 359.019 647.228C351.239 648.348 343.42 648.571 335.588 648.252C309.777 647.2 290.678 636.129 280.734 611.403C277.677 603.802 274.055 596.452 268.849 590.083C260.114 579.399 250.018 570.593 235.509 569.198C228.242 568.5 223.438 571.46 221.42 577.014C219.334 582.752 221.258 588.121 227.529 592.338C241.16 601.503 250.297 613.957 256.105 629.228C265.047 652.74 281.864 668.125 305.836 675.473C322.498 680.579 339.627 680.827 356.818 679.044C363.371 678.365 364.041 678.723 364.206 684.714C364.445 693.377 368.842 697.727 377.734 697.735C418.899 697.772 460.063 697.767 501.228 697.718C510.628 697.707 515.02 693.252 515.039 683.931C515.066 670.432 514.94 656.932 515.038 643.434C515.165 625.815 509.919 610.013 499.48 595.866C498.545 594.6 496.986 593.551 497.401 591.176C504.947 589.832 512.633 588.647 520.225 587.028C523.748 586.277 526.105 587.129 528.633 589.644C545.173 606.095 561.986 622.273 578.471 638.778C590.281 650.603 604.312 655.056 620.461 651.66C638.427 647.882 650.485 636.673 655.979 619.314C661.38 602.247 657.963 586.712 644.922 573.895C635.296 564.434 625.582 555.059 615.747 545.815C612.977 543.211 612.748 541.526 615.487 538.561C628.682 524.274 638.032 507.69 643.959 489.171C651.973 464.133 654.364 438.496 652.902 412.303C651.279 383.22 642.326 356.878 625.031 333.438C622.98 330.658 622.415 328.197 623.263 324.715C631.475 291.011 628.013 257.969 616.953 225.482C614.102 217.109 609.259 214.643 600.709 216.696C593.085 218.528 585.737 221.235 578.525 224.302C558.705 232.728 541.157 244.729 524.807 258.581C522.472 260.559 520.404 261.388 517.187 260.439C493.896 253.576 470.067 250.38 445.785 250.005C417.806 249.572 390.25 252.295 363.331 260.143C359.732 261.192 357.248 260.877 354.322 258.367C337.007 243.516 318.041 231.187 296.769 222.772C288.342 219.439 279.971 215.205 269.616 216.76Z" fill="#17904C"/>
</svg>
